:SAMPLES-PER-SECOND 30
:FRAME-RANGE 1-3549
:FULLY-SPECIFIED
:DEGREES
2773
root  -4.54564 39.1996 15.8446 -178.319 32.2222 177.788
RightUpLeg  -8.45413 -0.774187 -15.8941
RightLeg  18.7188 -19.0279 -7.20626
RightFoot  -19.9901 0.411719 7.23087
RightToes  1.218e-010 1.26228e-014 -6.01869e-014
Spine  -8.93515 -1.68255 -4.15216
Spine1  9.24171 -1.73893 -0.251179
HEad  18.2259 5.66171 -0.0655522
LeftShoulder1  1.1535 -0.750601 -22.3704
LeftArm  5.09491 5.4024 -51.8698
LeftForeArm  42.9225 -1.85843 -13.5854
LeftHand  -0.028183 5.31295 1.94225
RightShoulder  0.864153 -0.860609 29.2533
RightArm  -27.0238 -14.8809 44.0262
RightForeArm  91.8886 -4.25054 2.84089
RightHand  0.0465223 -8.33279 -3.43656
LeftUpLeg  -8.66016 7.40508 1.05974
LeftLeg  19.5455 13.7013 5.25913
LeftFoot  -12.4604 0.0168299 -5.91286
LeftToes  -1.43952e-010 7.51141e-011 -1.22592e-011
2774
root  -5.06516 39.0724 15.4297 -179.22 29.7172 176.896
RightUpLeg  -10.7945 4.16046 -16.2972
RightLeg  25.038 -14.3696 -7.41151
RightFoot  -21.1449 0.270997 4.82939
RightToes  1.218e-010 1.26228e-014 -6.01869e-014
Spine  -7.682 -1.3155 -5.27931
Spine1  8.89602 -1.21377 -1.26117
HEad  18.4576 3.87411 0.137793
LeftShoulder1  1.15849 -0.813263 -22.0402
LeftArm  4.34106 4.88595 -51.9729
LeftForeArm  42.8775 -1.61528 -13.4887
LeftHand  -0.0223326 5.75778 2.10709
RightShoulder  0.954633 -0.580798 28.9653
RightArm  -26.5259 -12.8858 44.8486
RightForeArm  91.1786 -4.32664 3.10089
RightHand  0.0451123 -8.14939 -3.56086
LeftUpLeg  -8.68936 5.63857 -0.926383
LeftLeg  20.4503 13.1441 5.32479
LeftFoot  -13.4843 -0.0125627 -4.9879
LeftToes  -1.43952e-010 7.51141e-011 -1.22592e-011
2775
root  -5.46017 38.9597 15.0083 -179.662 27.0872 176.587
RightUpLeg  -13.3589 6.03584 -15.3764
RightLeg  30.7229 -7.1748 -4.80704
RightFoot  -21.5878 0.306917 5.0536
RightToes  1.218e-010 1.26228e-014 -6.01869e-014
Spine  -6.8229 -1.2226 -6.49823
Spine1  8.84478 -1.12142 -1.83319
HEad  18.6461 2.43406 0.073218
LeftShoulder1  1.2331 -1.12116 -21.7541
LeftArm  4.10041 4.41987 -51.8247
LeftForeArm  41.854 -1.75392 -13.4356
LeftHand  -0.0211713 5.90783 1.9663
RightShoulder  1.00728 -0.389184 28.4694
RightArm  -26.314 -11.0688 45.7426
RightForeArm  90.3196 -4.37856 3.17587
RightHand  0.0550135 -8.17381 -3.92532
LeftUpLeg  -8.6336 5.01864 -2.06363
LeftLeg  21.2065 11.4257 4.74387
LeftFoot  -14.5268 -0.0229359 -3.95423
LeftToes  -1.43952e-010 7.51141e-011 -1.22592e-011
2776
root  -5.81103 38.942 14.5137 -179.582 23.5745 176.737
RightUpLeg  -15.479 6.49486 -13.2871
RightLeg  34.8144 -3.60245 -2.92963
RightFoot  -21.0084 0.367144 6.02262
RightToes  1.218e-010 1.26228e-014 -6.01869e-014
Spine  -6.21715 -1.63967 -7.80153
Spine1  8.5125 -1.73671 -1.22689
HEad  19.4221 1.03324 0.213497
LeftShoulder1  1.39732 -1.7372 -21.6017
LeftArm  4.00744 4.0399 -51.4177
LeftForeArm  41.8436 -2.14147 -13.3294
LeftHand  -0.0193247 5.90888 2.00696
RightShoulder  0.967069 -0.477463 28.1035
RightArm  -25.4217 -9.84858 46.1583
RightForeArm  89.0178 -4.51763 3.65435
RightHand  0.0651086 -8.10177 -4.41681
LeftUpLeg  -8.26451 4.67083 -2.66602
LeftLeg  20.9024 8.76301 3.50423
LeftFoot  -15.19 -0.00136916 -2.75034
LeftToes  -1.43952e-010 7.51141e-011 -1.22592e-011
2777
root  -6.11249 38.9619 13.9726 -179.244 19.9745 177.155
RightUpLeg  -17.6062 5.61301 -10.4207
RightLeg  37.3759 -3.67349 -3.25727
RightFoot  -20.7321 0.422131 6.84581
RightToes  1.218e-010 1.26228e-014 -6.01869e-014
Spine  -6.02098 -2.21974 -8.73099
Spine1  8.47826 -2.47349 -0.459134
HEad  20.0543 -0.489489 0.700813
LeftShoulder1  1.52337 -2.26643 -21.2106
LeftArm  4.72322 3.06161 -51.2351
LeftForeArm  41.6962 -2.5665 -13.3571
LeftHand  -0.0148029 5.95329 2.53269
RightShoulder  0.906236 -0.635685 27.8238
RightArm  -24.1556 -9.00362 46.4774
RightForeArm  87.365 -4.70919 4.35857
RightHand  0.0512075 -7.73729 -4.33673
LeftUpLeg  -7.72668 4.6299 -2.82612
LeftLeg  20.3064 5.65279 2.04469
LeftFoot  -15.6584 0.0292231 -1.7155
LeftToes  -1.43952e-010 7.51141e-011 -1.22592e-011
2778
root  -6.3804 39.0329 13.3594 -178.965 16.784 177.744
RightUpLeg  -19.4581 4.43155 -7.05696
RightLeg  37.9287 -6.4958 -5.65402
RightFoot  -19.7792 0.337244 6.38532
RightToes  1.218e-010 1.26228e-014 -6.01869e-014
Spine  -5.83527 -2.66168 -9.14089
Spine1  8.40236 -3.00839 0.332713
HEad  20.19 -1.91388 1.56352
LeftShoulder1  1.62233 -2.69224 -20.9019
LeftArm  5.42841 1.88754 -51.0601
LeftForeArm  41.4897 -3.18831 -13.3161
LeftHand  -0.0221814 6.00071 1.947
RightShoulder  0.866692 -0.743289 27.688
RightArm  -23.5599 -8.49164 46.6479
RightForeArm  85.9242 -4.82768 4.68414
RightHand  0.03516 -7.19852 -4.4287
LeftUpLeg  -6.63909 4.41376 -2.82489
LeftLeg  19.2569 3.12305 1.08502
LeftFoot  -15.9004 0.0648126 -0.767455
LeftToes  -1.43952e-010 7.51141e-011 -1.22592e-011
2779
root  -6.62166 39.1163 12.7328 -178.687 14.3535 178.53
RightUpLeg  -21.1221 3.71026 -3.47962
RightLeg  36.2435 -10.082 -8.08512
RightFoot  -17.8606 0.175432 5.2037
RightToes  1.218e-010 1.26228e-014 -6.01869e-014
Spine  -5.47838 -2.84619 -8.89131
Spine1  8.1202 -3.1881 0.842479
HEad  19.5525 -2.83108 2.63245
LeftShoulder1  1.687 -2.98312 -20.6651
LeftArm  6.06185 0.489896 -50.919
LeftForeArm  40.6978 -3.98463 -13.2057
LeftHand  -0.0219748 5.87681 1.88432
RightShoulder  0.876104 -0.709202 27.607
RightArm  -23.5569 -8.13169 46.8836
RightForeArm  85.464 -4.84707 4.6769
RightHand  0.0277802 -6.90333 -4.60362
LeftUpLeg  -5.46145 4.21826 -2.61676
LeftLeg  18.2696 1.17398 0.572298
LeftFoot  -16.0671 0.110524 0.342406
LeftToes  -1.43952e-010 7.51141e-011 -1.22592e-011
2780
root  -6.83802 39.2005 12.0821 -178.552 12.2953 179.408
RightUpLeg  -22.2974 3.7002 -0.16766
RightLeg  32.3628 -12.932 -8.91021
RightFoot  -14.1344 -0.00638925 3.66701
RightToes  1.218e-010 1.26228e-014 -6.01869e-014
Spine  -4.84594 -2.87872 -8.13521
Spine1  7.73476 -3.17231 1.1015
HEad  18.2822 -3.17368 3.70657
LeftShoulder1  1.73447 -3.212 -20.4372
LeftArm  6.45544 -0.994906 -50.9483
LeftForeArm  40.0034 -4.86826 -12.9878
LeftHand  -0.0220301 5.80555 2.03943
RightShoulder  0.887638 -0.664931 27.4775
RightArm  -23.103 -8.12296 47.1273
RightForeArm  85.4945 -4.88578 4.92047
RightHand  0.0209634 -6.75578 -4.47567
LeftUpLeg  -4.0515 3.96445 -2.24971
LeftLeg  17.2708 -0.360568 0.357331
LeftFoot  -16.2367 0.135757 0.896578
LeftToes  -1.43952e-010 7.51141e-011 -1.22592e-011
2781
root  -7.04442 39.2293 11.3809 -178.547 10.4603 -179.997
RightUpLeg  -22.9506 3.51956 2.37614
RightLeg  26.4963 -13.6495 -7.49666
RightFoot  -10.0687 -0.106496 3.43408
RightToes  1.218e-010 1.26228e-014 -6.01869e-014
Spine  -4.33603 -2.89957 -7.35831
Spine1  7.49899 -3.09175 1.05483
HEad  16.6349 -2.81846 4.36357
LeftShoulder1  1.80366 -3.47603 -20.4214
LeftArm  7.33185 -2.47068 -50.8733
LeftForeArm  38.608 -6.02788 -12.7349
LeftHand  -0.0240355 5.59366 2.25821
RightShoulder  0.913795 -0.571962 27.2934
RightArm  -22.6065 -8.15732 47.3372
RightForeArm  85.7619 -4.9193 5.19751
RightHand  0.0164174 -6.64271 -4.41544
LeftUpLeg  -2.61829 3.3083 -2.33743
LeftLeg  16.5644 -1.29493 0.612595
LeftFoot  -16.5234 0.18127 1.81376
LeftToes  -1.43952e-010 7.51141e-011 -1.22592e-011
